<?xml version="1.0" encoding="UTF-8"?><svg xmlns="http://www.w3.org/2000/svg" xmlns:xlink="http://www.w3.org/1999/xlink" height="190.0" preserveAspectRatio="xMidYMid meet" version="1.0" viewBox="5.0 5.0 190.0 190.0" width="190.0" zoomAndPan="magnify"><g><g id="change1_1"><path d="M 100.019531 9.09375 C 52.90625 9.09375 14.003906 44.773438 9.539062 91.117188 C 12.453125 88.765625 15.398438 86.136719 18.46875 83.394531 C 21.578125 80.613281 24.792969 77.742188 28.074219 75.09375 C 31.503906 72.292969 48.960938 71.269531 53.09375 75.246094 C 58.292969 80.222656 63.21875 84.753906 67.738281 88.726562 C 67.800781 88.769531 67.863281 88.808594 67.925781 88.863281 C 84.675781 103.597656 93.703125 108.992188 96.46875 110.480469 C 102.855469 106.679688 112.152344 106.625 117.46875 112.414062 C 120.894531 111.675781 124.460938 112.148438 127.726562 113.65625 C 127.324219 111.132812 127.492188 108.527344 128.289062 106.121094 C 129.347656 102.910156 132 98.460938 138.605469 95.488281 C 146.320312 91.980469 155.160156 92.96875 161.898438 97.328125 C 157.257812 89.816406 150.921875 86.472656 146.871094 85.042969 C 140.03125 82.589844 133.714844 83.171875 130.480469 84.839844 C 129.96875 85.105469 129.53125 85.394531 129.191406 85.699219 C 129.796875 86.417969 130.28125 87.394531 130.578125 88.5625 C 131.453125 92.007812 130.429688 96.355469 126.164062 98.28125 C 123.007812 99.703125 119.664062 99.265625 116.984375 97.082031 C 113.261719 94.042969 111.6875 88.402344 112.964844 82.703125 C 114.890625 74.085938 120.996094 69.648438 125.78125 67.445312 C 133.4375 63.921875 143.105469 63.679688 149.648438 66.765625 C 159.015625 64.300781 169.769531 66.113281 178.589844 71.664062 C 182.789062 74.3125 186.292969 77.65625 189.003906 81.519531 C 180.488281 39.894531 143.921875 9.09375 100.019531 9.09375 Z M 145.304688 109.691406 C 144.796875 109.761719 144.316406 109.90625 143.890625 110.101562 C 144.128906 110.242188 144.363281 110.398438 144.589844 110.574219 C 146.785156 112.277344 148.160156 115.761719 146.285156 119.691406 C 145.121094 122.152344 142.628906 123.859375 139.621094 124.253906 C 139.023438 124.332031 138.429688 124.332031 137.839844 124.300781 C 138.515625 125.925781 138.972656 127.621094 139.1875 129.351562 C 142.636719 129.492188 146.441406 127.683594 149.210938 124.449219 C 152.171875 120.984375 153.171875 116.882812 151.902344 113.441406 C 150.363281 110.714844 147.902344 109.300781 145.304688 109.691406" fill="#f2dea2"/></g><g id="change2_1"><path d="M 190.84375 97.171875 C 187.453125 92.351562 180.492188 91.3125 176.703125 92.1875 C 175.625 92.433594 174.699219 92.773438 173.867188 93.21875 C 170.871094 94.757812 169.105469 97.683594 169.320312 100.691406 C 169.496094 103.144531 170.90625 104.996094 173.1875 105.78125 C 174.511719 106.226562 175.878906 105.449219 176.507812 104.472656 C 177.066406 103.621094 176.996094 102.808594 176.304688 102.070312 C 175.910156 101.644531 175.714844 101.066406 175.765625 100.488281 C 175.816406 99.90625 176.117188 99.378906 176.585938 99.03125 C 178.695312 97.464844 181.59375 97.601562 184.160156 99.375 C 186.921875 101.289062 189.183594 104.929688 190.339844 110.03125 C 190.703125 106.730469 190.90625 103.394531 190.90625 100.019531 C 190.90625 99.058594 190.878906 98.125 190.84375 97.171875 Z M 119.574219 93.90625 C 120.601562 94.75 122.289062 95.546875 124.476562 94.550781 C 125.789062 93.953125 126.550781 92.929688 126.730469 91.5 C 126.917969 90.011719 126.40625 88.777344 126.089844 88.375 C 125.585938 88.296875 125.128906 88.042969 124.800781 87.640625 C 124.378906 87.128906 124.234375 86.433594 124.414062 85.789062 C 124.9375 83.933594 126.386719 82.34375 128.605469 81.203125 C 133.34375 78.757812 140.699219 78.671875 147.519531 80.941406 C 154.269531 78.65625 168.078125 80.382812 173.746094 88.796875 C 174.390625 88.5625 175.070312 88.359375 175.796875 88.199219 C 179.082031 87.441406 184.511719 87.660156 189.089844 90.222656 C 186.675781 84.097656 182.3125 78.847656 176.410156 75.128906 C 168.308594 70.035156 158.429688 68.453125 150.007812 70.914062 C 149.492188 71.058594 148.941406 71.007812 148.476562 70.753906 C 143.066406 67.878906 134.246094 68.054688 127.492188 71.164062 C 123.546875 72.980469 118.519531 76.613281 116.964844 83.597656 C 115.886719 88.375 117.5 92.214844 119.574219 93.90625 Z M 140.292969 99.21875 C 136.128906 101.089844 133.328125 103.917969 132.175781 107.40625 C 131.144531 110.527344 131.484375 114.097656 133.082031 116.953125 C 133.300781 117.304688 133.550781 117.734375 133.847656 118.0625 C 135.222656 119.691406 137.113281 120.464844 139.09375 120.191406 C 140.6875 119.980469 142.027344 119.117188 142.585938 117.933594 C 143.546875 115.921875 142.914062 114.457031 142.078125 113.808594 C 141.640625 113.46875 141.253906 113.4375 141.164062 113.503906 C 140.492188 114.074219 139.539062 114.132812 138.785156 113.679688 C 138.035156 113.226562 137.660156 112.34375 137.851562 111.484375 C 138.535156 108.441406 141.230469 106.144531 144.71875 105.640625 C 148.125 105.148438 152.710938 106.445312 155.523438 111.511719 C 155.535156 111.53125 155.539062 111.550781 155.550781 111.570312 C 155.550781 111.574219 155.550781 111.574219 155.550781 111.574219 C 155.753906 111.925781 155.949219 112.277344 156.101562 112.625 C 158.464844 117.773438 158.4375 124.121094 156.015625 129.992188 C 153.253906 136.683594 147.695312 142.046875 140.265625 145.226562 C 140.53125 147.265625 140.457031 149.285156 140.0625 151.234375 C 144.46875 149.585938 149.773438 149.699219 154.484375 151.734375 C 174.582031 136.421875 169.726562 114.613281 166.367188 108.082031 C 161.589844 98.828125 149.890625 94.863281 140.292969 99.21875 Z M 153.957031 155.992188 C 153.898438 155.96875 153.839844 155.953125 153.78125 155.921875 C 148.332031 153.121094 141.390625 153.773438 137.640625 157.445312 L 137.214844 157.902344 C 137.011719 158.25 136.742188 158.613281 136.425781 158.992188 C 135.695312 160.199219 135.332031 161.632812 135.429688 163 C 135.550781 165.5 136.957031 167.351562 138.78125 167.449219 C 140.722656 167.460938 141.34375 166.382812 141.5625 165.890625 C 141.847656 165.246094 141.890625 164.355469 141.355469 163.816406 C 140.808594 163.269531 140.617188 162.457031 140.859375 161.71875 C 141.105469 160.984375 141.742188 160.453125 142.511719 160.339844 C 143.988281 160.125 145.402344 160.253906 146.613281 160.695312 C 146.613281 160.695312 146.617188 160.695312 146.617188 160.695312 C 146.640625 160.703125 146.664062 160.714844 146.6875 160.722656 C 149.90625 161.800781 152.09375 164.898438 152.460938 169.015625 C 152.613281 170.703125 152.433594 172.671875 151.808594 174.679688 C 155.421875 172.175781 158.851562 169.402344 162.089844 166.367188 C 160.355469 160.441406 156.777344 157.464844 153.957031 155.992188 Z M 135.96875 144.394531 C 135.582031 142.71875 134.929688 141.09375 134.039062 139.589844 C 133.695312 139 133.664062 138.285156 133.949219 137.667969 C 134.898438 135.664062 135.34375 133.457031 135.230469 131.277344 C 135.125 127.515625 133.511719 123.738281 130.792969 120.875 C 127.0625 116.871094 121.914062 115.265625 117.324219 116.671875 C 116.503906 116.945312 115.601562 116.636719 115.078125 115.941406 C 111.179688 110.691406 102.8125 110.976562 97.753906 114.511719 C 94.703125 116.621094 93.011719 119.71875 92.980469 123.253906 C 92.964844 125.371094 93.679688 127.0625 94.941406 127.882812 C 95.886719 128.492188 97.023438 128.550781 98.152344 128.039062 C 98.660156 127.816406 99.117188 127.140625 99.304688 126.351562 C 99.492188 125.578125 99.339844 125.085938 99.265625 124.996094 C 98.292969 124.644531 97.792969 123.660156 98.023438 122.648438 C 98.867188 119.003906 102.070312 116.648438 105.855469 116.902344 C 109.019531 117.03125 112.617188 118.894531 114.144531 122.660156 C 117.703125 121.859375 121.578125 122.796875 124.714844 125.320312 C 130.957031 130.359375 132.179688 140.136719 127.507812 147.570312 C 125.332031 150.980469 122.210938 153.609375 118.214844 155.390625 C 114.984375 156.820312 111.617188 157.445312 108.230469 157.445312 C 107.519531 157.445312 106.808594 157.414062 106.097656 157.359375 C 111.203125 159.5 116.835938 161.089844 122.816406 161.546875 L 123.152344 161.546875 C 126.882812 161.546875 130.609375 159.683594 133.128906 156.554688 C 133.40625 156.140625 133.664062 155.769531 133.949219 155.441406 C 136.128906 152.21875 136.847656 148.296875 135.96875 144.394531 Z M 73.210938 155.398438 C 72.457031 156.996094 71.492188 158.398438 70.335938 159.574219 C 71.222656 160.335938 72.273438 161.257812 73.46875 162.3125 C 79.421875 167.550781 88.417969 175.46875 97.714844 181.621094 L 98.128906 181.902344 C 104.320312 186.03125 109.671875 189.601562 114.976562 189.667969 C 118.730469 189.050781 122.429688 188.183594 126.054688 187.097656 C 119.125 185.964844 111.457031 182.546875 102.738281 176.769531 C 92.171875 169.769531 80.390625 160.917969 73.210938 155.398438 Z M 80.476562 139.851562 C 80.488281 139.863281 80.503906 139.875 80.511719 139.882812 C 80.515625 139.886719 80.519531 139.890625 80.519531 139.890625 C 81.136719 140.507812 81.683594 141.058594 82.265625 141.601562 C 82.265625 141.601562 82.269531 141.601562 82.269531 141.601562 C 82.277344 141.609375 82.285156 141.617188 82.292969 141.621094 C 82.292969 141.625 82.296875 141.625 82.296875 141.628906 C 82.304688 141.632812 82.308594 141.640625 82.316406 141.644531 C 91.402344 149.796875 105.160156 156.683594 116.550781 151.652344 C 119.792969 150.203125 122.316406 148.09375 124.042969 145.386719 C 127.625 139.683594 126.796875 132.265625 122.148438 128.503906 C 119.042969 126.011719 115.699219 126.160156 113.621094 127.132812 C 111.304688 128.257812 110.089844 130.414062 110.402344 132.882812 C 110.65625 134.929688 111.699219 136.222656 113.203125 136.34375 C 114.214844 136.476562 115.511719 135.871094 115.949219 134.398438 C 116.207031 133.523438 117.011719 133.023438 117.933594 132.933594 C 118.851562 132.949219 119.648438 133.5625 119.886719 134.449219 C 120.71875 137.523438 119.558594 140.8125 116.78125 143.246094 C 113.304688 146.300781 106.878906 148.171875 100.378906 145.46875 C 91.582031 141.789062 85.488281 134.46875 80.113281 128.011719 C 79.554688 127.339844 79.011719 126.691406 78.476562 126.054688 C 79.621094 130.234375 79.558594 134.1875 78.230469 137.527344 C 78.972656 138.332031 79.714844 139.117188 80.476562 139.851562 Z M 54.210938 117.265625 C 62.394531 119.378906 67.902344 124.550781 69.316406 131.457031 C 69.539062 132.5625 68.828125 133.648438 67.71875 133.875 C 67.652344 133.886719 67.582031 133.886719 67.515625 133.894531 C 67.445312 133.902344 67.378906 133.914062 67.308594 133.914062 C 67.300781 133.914062 67.296875 133.910156 67.289062 133.910156 C 67.277344 133.910156 67.265625 133.910156 67.253906 133.90625 C 67.230469 133.910156 67.214844 133.914062 67.191406 133.914062 C 66.199219 134.003906 65.796875 135.386719 65.757812 135.554688 C 65.507812 136.746094 65.746094 139.019531 68.21875 139.992188 C 69.527344 140.488281 70.6875 140.113281 71.429688 139.71875 C 72.4375 139.171875 73.34375 138.214844 73.976562 137.035156 C 73.992188 137.003906 73.996094 136.96875 74.011719 136.9375 C 75.03125 134.988281 76.867188 129.527344 71.84375 120.859375 C 71.25 119.835938 70.585938 118.898438 69.863281 118.074219 C 69.859375 118.070312 69.855469 118.0625 69.851562 118.058594 C 69.84375 118.050781 69.835938 118.046875 69.832031 118.039062 C 61.425781 108 43.238281 104.285156 27.535156 109.414062 C 21.476562 111.394531 15.9375 114.53125 11.03125 118.707031 C 11.789062 122.351562 12.777344 125.972656 14.003906 129.523438 C 26.273438 117.167969 43.128906 114.386719 54.210938 117.265625 Z M 70.738281 144.203125 C 70.324219 144.269531 69.910156 144.3125 69.496094 144.3125 C 68.5625 144.3125 67.640625 144.148438 66.753906 143.8125 C 62.359375 142.089844 61.085938 137.894531 61.75 134.71875 C 62.003906 133.503906 62.523438 132.488281 63.21875 131.691406 C 57.183594 128.210938 50.347656 127.054688 43.4375 128.226562 C 48.3125 129 52.824219 131.035156 56.441406 134.25 C 61.8125 139.027344 64.140625 145.683594 62.671875 152.0625 C 62.457031 153 61.574219 153.460938 60.648438 153.648438 C 59.683594 153.636719 58.859375 152.953125 58.667969 152.007812 C 58.492188 151.140625 57.679688 150.792969 57.035156 150.757812 C 56.605469 150.695312 55.15625 150.796875 54.519531 152.765625 C 54.003906 154.339844 54.46875 155.644531 54.945312 156.464844 C 56.164062 158.691406 58.683594 159.882812 61.433594 159.519531 C 63.167969 159.320312 64.691406 158.773438 65.996094 157.890625 C 68.035156 156.511719 69.484375 154.378906 70.292969 151.566406 C 70.898438 149.363281 71.042969 146.84375 70.738281 144.203125 Z M 17.492188 92.804688 C 18.75 93.023438 19.796875 93.585938 20.597656 94.429688 C 25.242188 90.390625 29.601562 88.742188 32.8125 89.902344 C 33.550781 90.167969 34.191406 90.585938 34.71875 91.121094 C 37.078125 88.195312 39.542969 86.753906 42.183594 86.730469 L 42.246094 86.730469 C 45.324219 86.730469 48.246094 88.695312 51.136719 92.71875 C 52.257812 91.746094 53.601562 91.1875 55.113281 91.101562 C 57.453125 90.984375 59.875 91.980469 62.113281 93.429688 C 62.128906 92.953125 62.175781 92.488281 62.300781 92.050781 C 62.457031 91.496094 62.746094 90.847656 63.257812 90.226562 C 59.1875 86.597656 54.835938 82.582031 50.257812 78.203125 C 47.957031 75.988281 32.878906 76.453125 30.652344 78.269531 C 27.445312 80.863281 24.269531 83.699219 21.195312 86.445312 C 18.601562 88.765625 16.09375 91.003906 13.597656 93.082031 C 14.949219 92.726562 16.292969 92.589844 17.492188 92.804688 Z M 58.960938 147 C 58.625 143.457031 56.820312 140.066406 53.71875 137.308594 C 48.980469 133.09375 40.261719 129.90625 29.953125 133.527344 C 26.179688 135.914062 22.722656 138.941406 19.652344 142.53125 C 20.441406 144.015625 21.203125 145.367188 21.957031 146.621094 C 26.652344 141.675781 33.511719 139.667969 38.707031 139.925781 C 43.785156 140.183594 47.820312 142.394531 49.785156 145.996094 C 50.078125 146.53125 50.113281 147.171875 49.886719 147.738281 C 49.65625 148.308594 49.183594 148.742188 48.601562 148.925781 C 46.265625 149.664062 45.808594 151.351562 45.738281 152.285156 C 45.621094 153.898438 46.460938 155.46875 47.777344 156.144531 C 47.808594 156.160156 47.839844 156.175781 47.871094 156.195312 C 48.621094 156.535156 49.519531 156.589844 50.503906 156.351562 C 50.078125 154.777344 50.101562 153.101562 50.625 151.496094 C 51.636719 148.390625 54.308594 146.492188 57.269531 146.667969 C 57.859375 146.703125 58.429688 146.816406 58.960938 147" fill="#fff"/></g><g id="change3_1"><path d="M 181.828125 102.738281 C 181.609375 102.589844 181.265625 102.375 180.867188 102.222656 C 181.175781 103.707031 180.871094 105.277344 179.9375 106.707031 C 179.273438 107.734375 178.371094 108.546875 177.351562 109.109375 C 180.007812 111.875 181.894531 115.953125 182.808594 121.027344 C 183.738281 126.148438 183.609375 132.34375 182.1875 138.882812 C 183.097656 136.953125 183.949219 134.984375 184.726562 132.976562 C 184.738281 132.921875 184.746094 132.867188 184.761719 132.816406 C 190.097656 114.339844 185.171875 105.0625 181.828125 102.738281 Z M 154.4375 84.144531 C 158.347656 86.539062 162.628906 90.296875 165.980469 96.132812 C 166.792969 94.035156 168.222656 92.160156 170.128906 90.746094 C 166.726562 86.019531 159.835938 84.234375 154.4375 84.144531 Z M 145.308594 167.539062 C 144.171875 170.140625 141.601562 171.636719 138.578125 171.539062 C 135.261719 171.355469 132.609375 168.902344 131.6875 165.4375 C 129.839844 165.652344 128.039062 165.757812 126.265625 165.757812 C 125.195312 165.757812 124.132812 165.71875 123.070312 165.644531 L 122.699219 165.644531 C 122.695312 165.644531 122.6875 165.640625 122.683594 165.640625 C 122.636719 165.640625 122.589844 165.640625 122.546875 165.640625 C 122.539062 165.640625 122.539062 165.636719 122.535156 165.636719 C 122.242188 165.632812 121.925781 165.617188 121.648438 165.5625 C 121.617188 165.558594 121.59375 165.542969 121.5625 165.535156 C 116.316406 165.035156 111.339844 163.761719 106.742188 162.027344 C 115.476562 168.414062 124.738281 173.703125 132.898438 174.875 C 139.046875 175.773438 143.390625 174.351562 145.089844 170.863281 C 145.789062 169.4375 145.902344 167.859375 145.652344 166.53125 C 145.5625 166.871094 145.457031 167.207031 145.308594 167.539062 Z M 113.753906 140.445312 C 113.460938 140.460938 113.164062 140.449219 112.859375 140.421875 C 110.222656 140.203125 106.9375 138.226562 106.339844 133.386719 C 105.878906 129.703125 107.425781 126.335938 110.433594 124.265625 C 109.636719 122.1875 107.527344 121.066406 105.691406 120.992188 C 105.066406 120.9375 103.382812 121.03125 102.476562 122.445312 C 103.085938 123.21875 103.445312 124.246094 103.484375 125.425781 C 103.5625 127.753906 102.328125 130.679688 99.816406 131.78125 C 97.429688 132.859375 94.828125 132.691406 92.707031 131.316406 C 90.253906 129.71875 88.855469 126.761719 88.886719 123.214844 C 88.917969 119.375 90.367188 115.925781 92.988281 113.222656 C 88.972656 110.871094 80.4375 105.21875 66.347656 92.917969 C 66.28125 93.019531 66.253906 93.109375 66.238281 93.167969 C 65.96875 94.109375 66.640625 96.472656 69.414062 100.027344 C 69.703125 100.34375 70.082031 100.804688 70.464844 101.265625 C 71.183594 102.140625 71.066406 103.445312 70.195312 104.160156 C 69.8125 104.480469 69.347656 104.636719 68.886719 104.636719 C 68.304688 104.636719 67.726562 104.386719 67.328125 103.898438 L 67.300781 103.867188 C 66.957031 103.449219 66.617188 103.035156 66.273438 102.652344 C 66.269531 102.644531 66.265625 102.640625 66.261719 102.632812 C 66.257812 102.632812 66.253906 102.628906 66.253906 102.625 C 62.144531 97.886719 57.984375 95.019531 55.347656 95.1875 C 54.554688 95.234375 53.929688 95.589844 53.386719 96.273438 C 53.910156 97.1875 54.417969 98.132812 54.902344 99.125 C 55.398438 100.140625 54.980469 101.363281 53.960938 101.859375 C 52.957031 102.351562 51.71875 101.933594 51.222656 100.914062 C 50.484375 99.402344 49.699219 97.984375 48.878906 96.699219 C 46.464844 92.851562 44.171875 90.824219 42.242188 90.824219 L 42.21875 90.824219 C 40.371094 90.839844 38.257812 92.730469 36.105469 96.289062 C 35.648438 97.050781 34.769531 97.4375 33.890625 97.226562 C 33.027344 97.019531 32.390625 96.289062 32.3125 95.40625 C 32.195312 94.035156 31.601562 93.820312 31.40625 93.746094 C 29.855469 93.179688 26.113281 94.597656 21.589844 99.097656 C 19.796875 100.851562 17.972656 103.007812 16.160156 105.515625 C 15.757812 106.070312 15.132812 106.363281 14.5 106.363281 C 14.082031 106.363281 13.664062 106.242188 13.300781 105.976562 C 12.382812 105.316406 12.175781 104.035156 12.839844 103.117188 C 14.441406 100.90625 16.054688 98.953125 17.660156 97.269531 C 17.421875 97.011719 17.128906 96.894531 16.785156 96.835938 C 14.589844 96.464844 10.644531 98.511719 9.097656 100.148438 C 9.105469 104.90625 9.476562 109.582031 10.1875 114.113281 C 14.902344 110.429688 20.125 107.605469 25.765625 105.699219 C 28.082031 103.273438 29.851562 100.183594 29.871094 100.152344 C 30.425781 99.167969 31.675781 98.828125 32.660156 99.382812 C 33.644531 99.945312 33.988281 101.191406 33.429688 102.175781 C 33.394531 102.242188 32.984375 102.949219 32.316406 103.960938 C 47.878906 100.917969 64.03125 105.164062 72.609375 114.996094 C 76.253906 116.984375 79.507812 120.882812 83.261719 125.390625 C 88.335938 131.488281 94.085938 138.402344 101.953125 141.691406 C 106.617188 143.628906 111.160156 142.484375 113.753906 140.445312 Z M 77.238281 109.417969 C 76.835938 109.941406 76.230469 110.214844 75.621094 110.214844 C 75.179688 110.214844 74.742188 110.074219 74.367188 109.785156 C 73.710938 109.277344 73.351562 108.914062 73.351562 108.914062 C 72.5625 108.113281 72.566406 106.816406 73.367188 106.019531 C 74.164062 105.230469 75.449219 105.230469 76.238281 106.011719 C 76.28125 106.046875 76.5 106.261719 76.871094 106.546875 C 77.765625 107.238281 77.929688 108.527344 77.238281 109.417969 Z M 45.957031 159.8125 C 43.492188 158.414062 41.113281 157.34375 38.808594 156.597656 C 45.433594 161.132812 51.648438 168.308594 57.078125 174.585938 C 60.375 178.398438 63.488281 181.988281 66.15625 184.382812 C 71.710938 186.609375 77.425781 188.265625 83.257812 189.351562 C 77.835938 186.230469 72.164062 181.742188 65.886719 175.671875 C 58.050781 168.109375 51.714844 163.066406 45.957031 159.8125 Z M 41.652344 151.992188 C 41.824219 149.617188 42.972656 147.609375 44.835938 146.273438 C 43.34375 144.949219 41.140625 144.148438 38.503906 144.019531 C 33.964844 143.78125 27.996094 145.644531 24.238281 150.21875 C 24.609375 150.785156 24.984375 151.339844 25.371094 151.882812 C 30.578125 150.65625 35.957031 151.105469 41.660156 153.257812 C 41.628906 152.839844 41.625 152.417969 41.652344 151.992188" fill="#27498c"/></g><g id="change4_1"><path d="M 178.785156 121.753906 C 177.710938 115.824219 175.089844 111.507812 171.59375 109.90625 C 171.558594 109.894531 171.527344 109.882812 171.496094 109.867188 C 174.664062 119.523438 176.328125 139.234375 158.316406 153.933594 C 161.394531 156.191406 163.769531 159.339844 165.273438 163.144531 C 177.359375 149.5 180.789062 132.847656 178.785156 121.753906 Z M 139.550781 133.457031 C 139.453125 133.457031 139.355469 133.441406 139.257812 133.441406 C 139.109375 135.136719 138.726562 136.824219 138.082031 138.433594 C 138.550781 139.320312 138.945312 140.238281 139.28125 141.179688 C 145.398438 138.398438 149.960938 133.933594 152.230469 128.429688 C 152.515625 127.730469 152.753906 127.027344 152.960938 126.320312 C 152.753906 126.585938 152.542969 126.851562 152.320312 127.109375 C 148.878906 131.132812 144.09375 133.457031 139.550781 133.457031 Z M 136.269531 179.226562 C 135.0625 179.230469 133.746094 179.136719 132.3125 178.929688 C 120.535156 177.238281 105.773438 168.054688 85.859375 150.035156 C 85.792969 149.984375 85.75 149.945312 85.695312 149.898438 C 83.644531 148.316406 81.621094 146.59375 79.507812 144.625 C 79.5 144.617188 79.492188 144.609375 79.484375 144.601562 C 78.890625 144.050781 78.335938 143.496094 77.78125 142.941406 C 77.703125 142.878906 77.632812 142.804688 77.5625 142.726562 C 77.046875 142.226562 76.535156 141.703125 76.03125 141.171875 C 75.597656 141.65625 75.140625 142.113281 74.640625 142.5 C 75.125 145.566406 75.101562 148.554688 74.5625 151.273438 C 81.535156 156.652344 93.953125 166.035156 105.003906 173.355469 C 119.503906 182.972656 130.613281 185.601562 139.957031 181.652344 C 139.980469 181.640625 140.113281 181.578125 140.230469 181.527344 C 140.597656 181.34375 140.96875 181.15625 141.335938 180.953125 C 141.421875 180.898438 141.515625 180.851562 141.609375 180.800781 C 141.621094 180.796875 141.628906 180.792969 141.636719 180.785156 C 144.628906 179.1875 146.449219 176.953125 147.441406 174.699219 C 145.699219 176.820312 142.378906 179.226562 136.269531 179.226562 Z M 95.445312 185.03125 C 85.925781 178.726562 76.4375 170.375 70.761719 165.386719 C 69.226562 164.03125 67.941406 162.902344 66.953125 162.070312 C 65.425781 162.863281 63.746094 163.375 61.929688 163.585938 C 61.433594 163.648438 60.945312 163.679688 60.460938 163.679688 C 59.738281 163.679688 59.035156 163.589844 58.347656 163.457031 C 61.550781 166.046875 64.980469 169.109375 68.730469 172.730469 C 81.726562 185.292969 91.777344 190.71875 102.339844 190.863281 L 102.351562 190.863281 C 103.058594 190.855469 103.714844 190.820312 104.324219 190.785156 L 104.324219 190.792969 C 104.46875 190.789062 104.601562 190.785156 104.71875 190.785156 C 101.789062 189.261719 98.863281 187.3125 95.859375 185.308594 Z M 62.730469 126.847656 C 60.613281 124.238281 57.367188 122.308594 53.1875 121.230469 C 42.519531 118.476562 26.371094 121.972656 15.605469 133.824219 C 16.230469 135.402344 16.921875 136.992188 17.675781 138.589844 C 20.765625 135.199219 24.191406 132.304688 27.90625 129.972656 C 27.929688 129.957031 27.957031 129.949219 27.980469 129.933594 C 27.984375 129.933594 27.984375 129.929688 27.988281 129.929688 C 28.003906 129.921875 28.015625 129.914062 28.03125 129.90625 C 28.039062 129.902344 28.042969 129.894531 28.050781 129.890625 C 28.058594 129.882812 28.070312 129.882812 28.078125 129.878906 C 39.3125 122.882812 52.058594 121.898438 62.730469 126.847656 Z M 28.753906 156.40625 C 36.238281 165.855469 45.453125 173.675781 55.894531 179.46875 C 55.265625 178.746094 54.628906 178.015625 53.984375 177.269531 C 46.496094 168.613281 37.460938 158.148438 28.753906 156.40625" fill="#0477bf"/></g><g id="change5_1"><path d="M 195 100.019531 C 195 98.960938 194.96875 97.925781 194.929688 96.871094 C 194.945312 96.777344 194.960938 96.683594 194.960938 96.582031 C 194.960938 96.460938 194.9375 96.335938 194.914062 96.214844 C 192.890625 45.0625 151.210938 5 100.019531 5 C 49.210938 5 7.527344 44.714844 5.128906 95.378906 C 5.039062 96.695312 5 98.050781 5 99.363281 L 5 100.019531 C 5 106.285156 5.59375 112.4375 6.753906 118.296875 C 7.785156 123.652344 9.320312 128.976562 11.3125 134.105469 C 12.449219 137.101562 13.816406 140.160156 15.378906 143.207031 C 15.382812 143.214844 15.386719 143.222656 15.390625 143.230469 C 17.015625 146.371094 18.488281 148.921875 20 151.207031 C 20.890625 152.648438 21.871094 154.089844 22.863281 155.417969 C 33.359375 170.011719 47.671875 181.28125 64.246094 188.007812 L 64.25 188.003906 C 64.265625 188.007812 64.285156 188.019531 64.300781 188.027344 L 64.289062 188.054688 C 75.667969 192.660156 87.691406 195 100.019531 195 C 100.839844 195 101.609375 195 102.3125 194.957031 C 103.0625 194.957031 103.855469 194.949219 104.398438 194.878906 C 104.429688 194.878906 104.460938 194.878906 104.492188 194.875 C 104.890625 194.875 105.316406 194.867188 105.722656 194.828125 L 105.722656 194.832031 C 109.277344 194.605469 112.464844 194.246094 115.457031 193.742188 C 115.476562 193.738281 115.496094 193.734375 115.519531 193.730469 C 115.53125 193.726562 115.542969 193.726562 115.554688 193.722656 C 124.597656 192.246094 133.347656 189.449219 141.566406 185.410156 C 141.683594 185.363281 141.921875 185.273438 142.03125 185.207031 C 142.035156 185.203125 142.035156 185.203125 142.039062 185.203125 L 142.039062 185.199219 L 143.050781 184.71875 C 143.214844 184.636719 143.476562 184.507812 143.761719 184.292969 C 151.773438 180.175781 159.1875 174.871094 165.796875 168.511719 L 165.789062 168.507812 C 165.953125 168.390625 166.113281 168.257812 166.152344 168.15625 C 176.078125 158.558594 183.628906 147.175781 188.597656 134.332031 L 188.59375 134.328125 C 188.644531 134.199219 188.6875 134.058594 188.714844 133.914062 C 192.878906 123.1875 195 111.789062 195 100.019531 Z M 144.589844 110.574219 C 144.363281 110.398438 144.128906 110.242188 143.890625 110.101562 C 144.316406 109.90625 144.796875 109.761719 145.304688 109.691406 C 147.902344 109.300781 150.363281 110.714844 151.902344 113.441406 C 153.171875 116.882812 152.171875 120.984375 149.210938 124.449219 C 146.441406 127.683594 142.636719 129.492188 139.1875 129.351562 C 138.972656 127.621094 138.515625 125.925781 137.839844 124.300781 C 138.429688 124.332031 139.023438 124.332031 139.621094 124.253906 C 142.628906 123.859375 145.121094 122.152344 146.285156 119.691406 C 148.160156 115.761719 146.785156 112.277344 144.589844 110.574219 Z M 139.257812 133.441406 C 139.355469 133.441406 139.453125 133.457031 139.550781 133.457031 C 144.09375 133.457031 148.878906 131.132812 152.320312 127.109375 C 152.542969 126.851562 152.753906 126.585938 152.960938 126.320312 C 152.753906 127.027344 152.515625 127.730469 152.230469 128.429688 C 149.960938 133.933594 145.398438 138.398438 139.28125 141.179688 C 138.945312 140.238281 138.550781 139.320312 138.082031 138.433594 C 138.726562 136.824219 139.109375 135.136719 139.257812 133.441406 Z M 140.265625 145.226562 C 147.695312 142.046875 153.253906 136.683594 156.015625 129.992188 C 158.4375 124.121094 158.464844 117.773438 156.101562 112.625 C 155.949219 112.277344 155.753906 111.925781 155.550781 111.574219 C 155.550781 111.574219 155.550781 111.574219 155.550781 111.570312 C 155.539062 111.550781 155.535156 111.53125 155.523438 111.511719 C 152.710938 106.445312 148.125 105.148438 144.71875 105.640625 C 141.230469 106.144531 138.535156 108.441406 137.851562 111.484375 C 137.660156 112.34375 138.035156 113.226562 138.785156 113.679688 C 139.539062 114.132812 140.492188 114.074219 141.164062 113.503906 C 141.253906 113.4375 141.640625 113.46875 142.078125 113.808594 C 142.914062 114.457031 143.546875 115.921875 142.585938 117.933594 C 142.027344 119.117188 140.6875 119.980469 139.09375 120.191406 C 137.113281 120.464844 135.222656 119.691406 133.847656 118.0625 C 133.550781 117.734375 133.300781 117.304688 133.082031 116.953125 C 131.484375 114.097656 131.144531 110.527344 132.175781 107.40625 C 133.328125 103.917969 136.128906 101.089844 140.292969 99.21875 C 149.890625 94.863281 161.589844 98.828125 166.367188 108.082031 C 169.726562 114.613281 174.582031 136.421875 154.484375 151.734375 C 149.773438 149.699219 144.46875 149.585938 140.0625 151.234375 C 140.457031 149.285156 140.53125 147.265625 140.265625 145.226562 Z M 133.949219 155.441406 C 133.664062 155.769531 133.40625 156.140625 133.128906 156.554688 C 130.609375 159.683594 126.882812 161.546875 123.152344 161.546875 L 122.816406 161.546875 C 116.835938 161.089844 111.203125 159.5 106.097656 157.359375 C 106.808594 157.414062 107.519531 157.445312 108.230469 157.445312 C 111.617188 157.445312 114.984375 156.820312 118.214844 155.390625 C 122.210938 153.609375 125.332031 150.980469 127.507812 147.570312 C 132.179688 140.136719 130.957031 130.359375 124.714844 125.320312 C 121.578125 122.796875 117.703125 121.859375 114.144531 122.660156 C 112.617188 118.894531 109.019531 117.03125 105.855469 116.902344 C 102.070312 116.648438 98.867188 119.003906 98.023438 122.648438 C 97.792969 123.660156 98.292969 124.644531 99.265625 124.996094 C 99.339844 125.085938 99.492188 125.578125 99.304688 126.351562 C 99.117188 127.140625 98.660156 127.816406 98.152344 128.039062 C 97.023438 128.550781 95.886719 128.492188 94.941406 127.882812 C 93.679688 127.0625 92.964844 125.371094 92.980469 123.253906 C 93.011719 119.71875 94.703125 116.621094 97.753906 114.511719 C 102.8125 110.976562 111.179688 110.691406 115.078125 115.941406 C 115.601562 116.636719 116.503906 116.945312 117.324219 116.671875 C 121.914062 115.265625 127.0625 116.871094 130.792969 120.875 C 133.511719 123.738281 135.125 127.515625 135.230469 131.277344 C 135.34375 133.457031 134.898438 135.664062 133.949219 137.667969 C 133.664062 138.285156 133.695312 139 134.039062 139.589844 C 134.929688 141.09375 135.582031 142.71875 135.96875 144.394531 C 136.847656 148.296875 136.128906 152.21875 133.949219 155.441406 Z M 138.578125 171.539062 C 141.601562 171.636719 144.171875 170.140625 145.308594 167.539062 C 145.457031 167.207031 145.5625 166.871094 145.652344 166.53125 C 145.902344 167.859375 145.789062 169.4375 145.089844 170.863281 C 143.390625 174.351562 139.046875 175.773438 132.898438 174.875 C 124.738281 173.703125 115.476562 168.414062 106.742188 162.027344 C 111.339844 163.761719 116.316406 165.035156 121.5625 165.535156 C 121.59375 165.542969 121.617188 165.558594 121.648438 165.5625 C 121.925781 165.617188 122.242188 165.632812 122.535156 165.636719 C 122.539062 165.636719 122.539062 165.640625 122.546875 165.640625 C 122.589844 165.640625 122.636719 165.640625 122.683594 165.640625 C 122.6875 165.640625 122.695312 165.644531 122.699219 165.644531 L 123.070312 165.644531 C 124.132812 165.71875 125.195312 165.757812 126.265625 165.757812 C 128.039062 165.757812 129.839844 165.652344 131.6875 165.4375 C 132.609375 168.902344 135.261719 171.355469 138.578125 171.539062 Z M 78.476562 126.054688 C 79.011719 126.691406 79.554688 127.339844 80.113281 128.011719 C 85.488281 134.46875 91.582031 141.789062 100.378906 145.46875 C 106.878906 148.171875 113.304688 146.300781 116.78125 143.246094 C 119.558594 140.8125 120.71875 137.523438 119.886719 134.449219 C 119.648438 133.5625 118.851562 132.949219 117.933594 132.933594 C 117.011719 133.023438 116.207031 133.523438 115.949219 134.398438 C 115.511719 135.871094 114.214844 136.476562 113.203125 136.34375 C 111.699219 136.222656 110.65625 134.929688 110.402344 132.882812 C 110.089844 130.414062 111.304688 128.257812 113.621094 127.132812 C 115.699219 126.160156 119.042969 126.011719 122.148438 128.503906 C 126.796875 132.265625 127.625 139.683594 124.042969 145.386719 C 122.316406 148.09375 119.792969 150.203125 116.550781 151.652344 C 105.160156 156.683594 91.402344 149.796875 82.316406 141.644531 C 82.308594 141.640625 82.304688 141.632812 82.296875 141.628906 C 82.296875 141.625 82.292969 141.625 82.292969 141.621094 C 82.285156 141.617188 82.277344 141.609375 82.269531 141.601562 C 82.269531 141.601562 82.265625 141.601562 82.265625 141.601562 C 81.683594 141.058594 81.136719 140.507812 80.519531 139.890625 C 80.519531 139.890625 80.515625 139.886719 80.511719 139.882812 C 80.503906 139.875 80.488281 139.863281 80.476562 139.851562 C 79.714844 139.117188 78.972656 138.332031 78.230469 137.527344 C 79.558594 134.1875 79.621094 130.234375 78.476562 126.054688 Z M 165.980469 96.132812 C 162.628906 90.296875 158.347656 86.539062 154.4375 84.144531 C 159.835938 84.234375 166.726562 86.019531 170.128906 90.746094 C 168.222656 92.160156 166.792969 94.035156 165.980469 96.132812 Z M 147.519531 80.941406 C 140.699219 78.671875 133.34375 78.757812 128.605469 81.203125 C 126.386719 82.34375 124.9375 83.933594 124.414062 85.789062 C 124.234375 86.433594 124.378906 87.128906 124.800781 87.640625 C 125.128906 88.042969 125.585938 88.296875 126.089844 88.375 C 126.40625 88.777344 126.917969 90.011719 126.730469 91.5 C 126.550781 92.929688 125.789062 93.953125 124.476562 94.550781 C 122.289062 95.546875 120.601562 94.75 119.574219 93.90625 C 117.5 92.214844 115.886719 88.375 116.964844 83.597656 C 118.519531 76.613281 123.546875 72.980469 127.492188 71.164062 C 134.246094 68.054688 143.066406 67.878906 148.476562 70.753906 C 148.941406 71.007812 149.492188 71.058594 150.007812 70.914062 C 158.429688 68.453125 168.308594 70.035156 176.410156 75.128906 C 182.3125 78.847656 186.675781 84.097656 189.089844 90.222656 C 184.511719 87.660156 179.082031 87.441406 175.796875 88.199219 C 175.070312 88.359375 174.390625 88.5625 173.746094 88.796875 C 168.078125 80.382812 154.269531 78.65625 147.519531 80.941406 Z M 100.019531 9.09375 C 143.921875 9.09375 180.488281 39.894531 189.003906 81.519531 C 186.292969 77.65625 182.789062 74.3125 178.589844 71.664062 C 169.769531 66.113281 159.015625 64.300781 149.648438 66.765625 C 143.105469 63.679688 133.4375 63.921875 125.78125 67.445312 C 120.996094 69.648438 114.890625 74.085938 112.964844 82.703125 C 111.6875 88.402344 113.261719 94.042969 116.984375 97.082031 C 119.664062 99.265625 123.007812 99.703125 126.164062 98.28125 C 130.429688 96.355469 131.453125 92.007812 130.578125 88.5625 C 130.28125 87.394531 129.796875 86.417969 129.191406 85.699219 C 129.53125 85.394531 129.96875 85.105469 130.480469 84.839844 C 133.714844 83.171875 140.03125 82.589844 146.871094 85.042969 C 150.921875 86.472656 157.257812 89.816406 161.898438 97.328125 C 155.160156 92.96875 146.320312 91.980469 138.605469 95.488281 C 132 98.460938 129.347656 102.910156 128.289062 106.121094 C 127.492188 108.527344 127.324219 111.132812 127.726562 113.65625 C 124.460938 112.148438 120.894531 111.675781 117.46875 112.414062 C 112.152344 106.625 102.855469 106.679688 96.46875 110.480469 C 93.703125 108.992188 84.675781 103.597656 67.925781 88.863281 C 67.863281 88.808594 67.800781 88.769531 67.738281 88.726562 C 63.21875 84.753906 58.292969 80.222656 53.09375 75.246094 C 48.960938 71.269531 31.503906 72.292969 28.074219 75.09375 C 24.792969 77.742188 21.578125 80.613281 18.46875 83.394531 C 15.398438 86.136719 12.453125 88.765625 9.539062 91.117188 C 14.003906 44.773438 52.90625 9.09375 100.019531 9.09375 Z M 63.257812 90.226562 C 62.746094 90.847656 62.457031 91.496094 62.300781 92.050781 C 62.175781 92.488281 62.128906 92.953125 62.113281 93.429688 C 59.875 91.980469 57.453125 90.984375 55.113281 91.101562 C 53.601562 91.1875 52.257812 91.746094 51.136719 92.71875 C 48.246094 88.695312 45.324219 86.730469 42.246094 86.730469 L 42.183594 86.730469 C 39.542969 86.753906 37.078125 88.195312 34.71875 91.121094 C 34.191406 90.585938 33.550781 90.167969 32.8125 89.902344 C 29.601562 88.742188 25.242188 90.390625 20.597656 94.429688 C 19.796875 93.585938 18.75 93.023438 17.492188 92.804688 C 16.292969 92.589844 14.949219 92.726562 13.597656 93.082031 C 16.09375 91.003906 18.601562 88.765625 21.195312 86.445312 C 24.269531 83.699219 27.445312 80.863281 30.652344 78.269531 C 32.878906 76.453125 47.957031 75.988281 50.257812 78.203125 C 54.835938 82.582031 59.1875 86.597656 63.257812 90.226562 Z M 9.097656 100.148438 C 10.644531 98.511719 14.589844 96.464844 16.785156 96.835938 C 17.128906 96.894531 17.421875 97.011719 17.660156 97.269531 C 16.054688 98.953125 14.441406 100.90625 12.839844 103.117188 C 12.175781 104.035156 12.382812 105.316406 13.300781 105.976562 C 13.664062 106.242188 14.082031 106.363281 14.5 106.363281 C 15.132812 106.363281 15.757812 106.070312 16.160156 105.515625 C 17.972656 103.007812 19.796875 100.851562 21.589844 99.097656 C 26.113281 94.597656 29.855469 93.179688 31.40625 93.746094 C 31.601562 93.820312 32.195312 94.035156 32.3125 95.40625 C 32.390625 96.289062 33.027344 97.019531 33.890625 97.226562 C 34.769531 97.4375 35.648438 97.050781 36.105469 96.289062 C 38.257812 92.730469 40.371094 90.839844 42.21875 90.824219 L 42.242188 90.824219 C 44.171875 90.824219 46.464844 92.851562 48.878906 96.699219 C 49.699219 97.984375 50.484375 99.402344 51.222656 100.914062 C 51.71875 101.933594 52.957031 102.351562 53.960938 101.859375 C 54.980469 101.363281 55.398438 100.140625 54.902344 99.125 C 54.417969 98.132812 53.910156 97.1875 53.386719 96.273438 C 53.929688 95.589844 54.554688 95.234375 55.347656 95.1875 C 57.984375 95.019531 62.144531 97.886719 66.253906 102.625 C 66.253906 102.628906 66.257812 102.632812 66.261719 102.632812 C 66.265625 102.640625 66.269531 102.644531 66.273438 102.652344 C 66.617188 103.035156 66.957031 103.449219 67.300781 103.867188 L 67.328125 103.898438 C 67.726562 104.386719 68.304688 104.636719 68.886719 104.636719 C 69.347656 104.636719 69.8125 104.480469 70.195312 104.160156 C 71.066406 103.445312 71.183594 102.140625 70.464844 101.265625 C 70.082031 100.804688 69.703125 100.34375 69.414062 100.027344 C 66.640625 96.472656 65.96875 94.109375 66.238281 93.167969 C 66.253906 93.109375 66.28125 93.019531 66.347656 92.917969 C 80.4375 105.21875 88.972656 110.871094 92.988281 113.222656 C 90.367188 115.925781 88.917969 119.375 88.886719 123.214844 C 88.855469 126.761719 90.253906 129.71875 92.707031 131.316406 C 94.828125 132.691406 97.429688 132.859375 99.816406 131.78125 C 102.328125 130.679688 103.5625 127.753906 103.484375 125.425781 C 103.445312 124.246094 103.085938 123.21875 102.476562 122.445312 C 103.382812 121.03125 105.066406 120.9375 105.691406 120.992188 C 107.527344 121.066406 109.636719 122.1875 110.433594 124.265625 C 107.425781 126.335938 105.878906 129.703125 106.339844 133.386719 C 106.9375 138.226562 110.222656 140.203125 112.859375 140.421875 C 113.164062 140.449219 113.460938 140.460938 113.753906 140.445312 C 111.160156 142.484375 106.617188 143.628906 101.953125 141.691406 C 94.085938 138.402344 88.335938 131.488281 83.261719 125.390625 C 79.507812 120.882812 76.253906 116.984375 72.609375 114.996094 C 64.03125 105.164062 47.878906 100.917969 32.316406 103.960938 C 32.984375 102.949219 33.394531 102.242188 33.429688 102.175781 C 33.988281 101.191406 33.644531 99.945312 32.660156 99.382812 C 31.675781 98.828125 30.425781 99.167969 29.871094 100.152344 C 29.851562 100.183594 28.082031 103.273438 25.765625 105.699219 C 20.125 107.605469 14.902344 110.429688 10.1875 114.113281 C 9.476562 109.582031 9.105469 104.90625 9.097656 100.148438 Z M 14.003906 129.523438 C 12.777344 125.972656 11.789062 122.351562 11.03125 118.707031 C 15.9375 114.53125 21.476562 111.394531 27.535156 109.414062 C 43.238281 104.285156 61.425781 108 69.832031 118.039062 C 69.835938 118.046875 69.84375 118.050781 69.851562 118.058594 C 69.855469 118.0625 69.859375 118.070312 69.863281 118.074219 C 70.585938 118.898438 71.25 119.835938 71.84375 120.859375 C 76.867188 129.527344 75.03125 134.988281 74.011719 136.9375 C 73.996094 136.96875 73.992188 137.003906 73.976562 137.035156 C 73.34375 138.214844 72.4375 139.171875 71.429688 139.71875 C 70.6875 140.113281 69.527344 140.488281 68.21875 139.992188 C 65.746094 139.019531 65.507812 136.746094 65.757812 135.554688 C 65.796875 135.386719 66.199219 134.003906 67.191406 133.914062 C 67.214844 133.914062 67.230469 133.910156 67.253906 133.90625 C 67.265625 133.910156 67.277344 133.910156 67.289062 133.910156 C 67.296875 133.910156 67.300781 133.914062 67.308594 133.914062 C 67.378906 133.914062 67.445312 133.902344 67.515625 133.894531 C 67.582031 133.886719 67.652344 133.886719 67.71875 133.875 C 68.828125 133.648438 69.539062 132.5625 69.316406 131.457031 C 67.902344 124.550781 62.394531 119.378906 54.210938 117.265625 C 43.128906 114.386719 26.273438 117.167969 14.003906 129.523438 Z M 56.441406 134.25 C 52.824219 131.035156 48.3125 129 43.4375 128.226562 C 50.347656 127.054688 57.183594 128.210938 63.21875 131.691406 C 62.523438 132.488281 62.003906 133.503906 61.75 134.71875 C 61.085938 137.894531 62.359375 142.089844 66.753906 143.8125 C 67.640625 144.148438 68.5625 144.3125 69.496094 144.3125 C 69.910156 144.3125 70.324219 144.269531 70.738281 144.203125 C 71.042969 146.84375 70.898438 149.363281 70.292969 151.566406 C 69.484375 154.378906 68.035156 156.511719 65.996094 157.890625 C 64.691406 158.773438 63.167969 159.320312 61.433594 159.519531 C 58.683594 159.882812 56.164062 158.691406 54.945312 156.464844 C 54.46875 155.644531 54.003906 154.339844 54.519531 152.765625 C 55.15625 150.796875 56.605469 150.695312 57.035156 150.757812 C 57.679688 150.792969 58.492188 151.140625 58.667969 152.007812 C 58.859375 152.953125 59.683594 153.636719 60.648438 153.648438 C 61.574219 153.460938 62.457031 153 62.671875 152.0625 C 64.140625 145.683594 61.8125 139.027344 56.441406 134.25 Z M 15.605469 133.824219 C 26.371094 121.972656 42.519531 118.476562 53.1875 121.230469 C 57.367188 122.308594 60.613281 124.238281 62.730469 126.847656 C 52.058594 121.898438 39.3125 122.882812 28.078125 129.878906 C 28.070312 129.882812 28.058594 129.882812 28.050781 129.890625 C 28.042969 129.894531 28.039062 129.902344 28.03125 129.90625 C 28.015625 129.914062 28.003906 129.921875 27.988281 129.929688 C 27.984375 129.929688 27.984375 129.933594 27.980469 129.933594 C 27.957031 129.949219 27.929688 129.957031 27.90625 129.972656 C 24.191406 132.304688 20.765625 135.199219 17.675781 138.589844 C 16.921875 136.992188 16.230469 135.402344 15.605469 133.824219 Z M 21.957031 146.621094 C 21.203125 145.367188 20.441406 144.015625 19.652344 142.53125 C 22.722656 138.941406 26.179688 135.914062 29.953125 133.527344 C 40.261719 129.90625 48.980469 133.09375 53.71875 137.308594 C 56.820312 140.066406 58.625 143.457031 58.960938 147 C 58.429688 146.816406 57.859375 146.703125 57.269531 146.667969 C 54.308594 146.492188 51.636719 148.390625 50.625 151.496094 C 50.101562 153.101562 50.078125 154.777344 50.503906 156.351562 C 49.519531 156.589844 48.621094 156.535156 47.871094 156.195312 C 47.839844 156.175781 47.808594 156.160156 47.777344 156.144531 C 46.460938 155.46875 45.621094 153.898438 45.738281 152.285156 C 45.808594 151.351562 46.265625 149.664062 48.601562 148.925781 C 49.183594 148.742188 49.65625 148.308594 49.886719 147.738281 C 50.113281 147.171875 50.078125 146.53125 49.785156 145.996094 C 47.820312 142.394531 43.785156 140.183594 38.707031 139.925781 C 33.511719 139.667969 26.652344 141.675781 21.957031 146.621094 Z M 24.238281 150.21875 C 27.996094 145.644531 33.964844 143.78125 38.503906 144.019531 C 41.140625 144.148438 43.34375 144.949219 44.835938 146.273438 C 42.972656 147.609375 41.824219 149.617188 41.652344 151.992188 C 41.625 152.417969 41.628906 152.839844 41.660156 153.257812 C 35.957031 151.105469 30.578125 150.65625 25.371094 151.882812 C 24.984375 151.339844 24.609375 150.785156 24.238281 150.21875 Z M 28.753906 156.40625 C 37.460938 158.148438 46.496094 168.613281 53.984375 177.269531 C 54.628906 178.015625 55.265625 178.746094 55.894531 179.46875 C 45.453125 173.675781 36.238281 165.855469 28.753906 156.40625 Z M 66.15625 184.382812 C 63.488281 181.988281 60.375 178.398438 57.078125 174.585938 C 51.648438 168.308594 45.433594 161.132812 38.808594 156.597656 C 41.113281 157.34375 43.492188 158.414062 45.957031 159.8125 C 51.714844 163.066406 58.050781 168.109375 65.886719 175.671875 C 72.164062 181.742188 77.835938 186.230469 83.257812 189.351562 C 77.425781 188.265625 71.710938 186.609375 66.15625 184.382812 Z M 104.324219 190.792969 L 104.324219 190.785156 C 103.714844 190.820312 103.058594 190.855469 102.351562 190.863281 L 102.339844 190.863281 C 91.777344 190.71875 81.726562 185.292969 68.730469 172.730469 C 64.980469 169.109375 61.550781 166.046875 58.347656 163.457031 C 59.035156 163.589844 59.738281 163.679688 60.460938 163.679688 C 60.945312 163.679688 61.433594 163.648438 61.929688 163.585938 C 63.746094 163.375 65.425781 162.863281 66.953125 162.070312 C 67.941406 162.902344 69.226562 164.03125 70.761719 165.386719 C 76.4375 170.375 85.925781 178.726562 95.445312 185.03125 L 95.859375 185.308594 C 98.863281 187.3125 101.789062 189.261719 104.71875 190.785156 C 104.601562 190.785156 104.46875 190.789062 104.324219 190.792969 Z M 114.976562 189.667969 C 109.671875 189.601562 104.320312 186.03125 98.128906 181.902344 L 97.714844 181.621094 C 88.417969 175.46875 79.421875 167.550781 73.46875 162.3125 C 72.273438 161.257812 71.222656 160.335938 70.335938 159.574219 C 71.492188 158.398438 72.457031 156.996094 73.210938 155.398438 C 80.390625 160.917969 92.171875 169.769531 102.738281 176.769531 C 111.457031 182.546875 119.125 185.964844 126.054688 187.097656 C 122.429688 188.183594 118.730469 189.050781 114.976562 189.667969 Z M 141.636719 180.785156 C 141.628906 180.792969 141.621094 180.796875 141.609375 180.800781 C 141.59375 180.808594 141.578125 180.820312 141.5625 180.828125 C 141.488281 180.871094 141.410156 180.910156 141.335938 180.953125 C 140.96875 181.15625 140.597656 181.34375 140.230469 181.527344 C 140.113281 181.578125 139.980469 181.640625 139.957031 181.652344 C 130.613281 185.601562 119.503906 182.972656 105.003906 173.355469 C 93.953125 166.035156 81.535156 156.652344 74.5625 151.273438 C 75.101562 148.554688 75.125 145.566406 74.640625 142.5 C 75.140625 142.113281 75.597656 141.65625 76.03125 141.171875 C 76.535156 141.703125 77.046875 142.226562 77.5625 142.726562 C 77.632812 142.804688 77.703125 142.878906 77.78125 142.941406 C 78.335938 143.496094 78.890625 144.050781 79.484375 144.601562 C 79.492188 144.609375 79.5 144.617188 79.507812 144.625 C 81.621094 146.59375 83.644531 148.316406 85.695312 149.898438 C 85.75 149.945312 85.792969 149.984375 85.859375 150.035156 C 105.773438 168.054688 120.535156 177.238281 132.3125 178.929688 C 133.746094 179.136719 135.0625 179.230469 136.269531 179.226562 C 142.378906 179.226562 145.699219 176.820312 147.441406 174.699219 C 146.449219 176.953125 144.628906 179.1875 141.636719 180.785156 Z M 151.808594 174.679688 C 152.433594 172.671875 152.613281 170.703125 152.460938 169.015625 C 152.09375 164.898438 149.90625 161.800781 146.6875 160.722656 C 146.664062 160.714844 146.640625 160.703125 146.617188 160.695312 C 146.617188 160.695312 146.613281 160.695312 146.613281 160.695312 C 145.402344 160.253906 143.988281 160.125 142.511719 160.339844 C 141.742188 160.453125 141.105469 160.984375 140.859375 161.71875 C 140.617188 162.457031 140.808594 163.269531 141.355469 163.816406 C 141.890625 164.355469 141.847656 165.246094 141.5625 165.890625 C 141.34375 166.382812 140.722656 167.460938 138.78125 167.449219 C 136.957031 167.351562 135.550781 165.5 135.429688 163 C 135.332031 161.632812 135.695312 160.199219 136.425781 158.992188 C 136.742188 158.613281 137.011719 158.25 137.214844 157.902344 L 137.640625 157.445312 C 141.390625 153.773438 148.332031 153.121094 153.78125 155.921875 C 153.839844 155.953125 153.898438 155.96875 153.957031 155.992188 C 156.777344 157.464844 160.355469 160.441406 162.089844 166.367188 C 158.851562 169.402344 155.421875 172.175781 151.808594 174.679688 Z M 165.273438 163.144531 C 163.769531 159.339844 161.394531 156.191406 158.316406 153.933594 C 176.328125 139.234375 174.664062 119.523438 171.496094 109.867188 C 171.527344 109.882812 171.558594 109.894531 171.59375 109.90625 C 175.089844 111.507812 177.710938 115.824219 178.785156 121.753906 C 180.789062 132.847656 177.359375 149.5 165.273438 163.144531 Z M 184.761719 132.816406 C 184.746094 132.867188 184.738281 132.921875 184.726562 132.976562 C 183.949219 134.984375 183.097656 136.953125 182.1875 138.882812 C 183.609375 132.34375 183.738281 126.148438 182.808594 121.027344 C 181.894531 115.953125 180.007812 111.875 177.351562 109.109375 C 178.371094 108.546875 179.273438 107.734375 179.9375 106.707031 C 180.871094 105.277344 181.175781 103.707031 180.867188 102.222656 C 181.265625 102.375 181.609375 102.589844 181.828125 102.738281 C 185.171875 105.0625 190.097656 114.339844 184.761719 132.816406 Z M 184.160156 99.375 C 181.59375 97.601562 178.695312 97.464844 176.585938 99.03125 C 176.117188 99.378906 175.816406 99.90625 175.765625 100.488281 C 175.714844 101.066406 175.910156 101.644531 176.304688 102.070312 C 176.996094 102.808594 177.066406 103.621094 176.507812 104.472656 C 175.878906 105.449219 174.511719 106.226562 173.1875 105.78125 C 170.90625 104.996094 169.496094 103.144531 169.320312 100.691406 C 169.105469 97.683594 170.871094 94.757812 173.867188 93.21875 C 174.699219 92.773438 175.625 92.433594 176.703125 92.1875 C 180.492188 91.3125 187.453125 92.351562 190.84375 97.171875 C 190.878906 98.125 190.90625 99.058594 190.90625 100.019531 C 190.90625 103.394531 190.703125 106.730469 190.339844 110.03125 C 189.183594 104.929688 186.921875 101.289062 184.160156 99.375 Z M 74.367188 109.785156 C 74.742188 110.074219 75.179688 110.214844 75.621094 110.214844 C 76.230469 110.214844 76.835938 109.941406 77.238281 109.417969 C 77.929688 108.527344 77.765625 107.238281 76.871094 106.546875 C 76.5 106.261719 76.28125 106.046875 76.238281 106.011719 C 75.449219 105.230469 74.164062 105.230469 73.367188 106.019531 C 72.566406 106.816406 72.5625 108.113281 73.351562 108.914062 C 73.351562 108.914062 73.710938 109.277344 74.367188 109.785156" fill="#112140"/></g></g></svg>