<?xml version="1.0" encoding="UTF-8" standalone="no"?><svg xmlns="http://www.w3.org/2000/svg" xmlns:xlink="http://www.w3.org/1999/xlink" fill="#000000" height="850" preserveAspectRatio="xMidYMid meet" version="1" viewBox="75.0 75.0 850.0 850.0" width="850" zoomAndPan="magnify"><g id="change1_1"><path d="M 898.707031 613.320312 C 887.929688 650.007812 871.476562 684.8125 851.058594 716.871094 C 834.203125 742.957031 815.035156 767.476562 793.496094 789.777344 C 790.710938 792.824219 787.601562 795.550781 784.644531 798.425781 C 781.636719 801.25 778.714844 804.167969 775.644531 806.921875 L 766.308594 815.042969 L 761.640625 819.105469 L 756.796875 822.953125 L 747.128906 830.679688 C 743.851562 833.183594 740.472656 835.550781 737.15625 838.003906 C 730.597656 843.023438 723.621094 847.4375 716.789062 852.082031 C 715.804688 852.746094 714.769531 853.4375 713.691406 854.164062 C 712.578125 854.832031 711.421875 855.527344 710.214844 856.253906 C 707.804688 857.695312 705.210938 859.246094 702.449219 860.894531 C 696.992188 864.324219 690.535156 867.550781 683.566406 871.257812 C 681.8125 872.160156 680.054688 873.148438 678.199219 874.035156 C 676.335938 874.902344 674.4375 875.785156 672.5 876.683594 C 668.625 878.472656 664.609375 880.328125 660.46875 882.242188 C 651.976562 885.5625 643.121094 889.546875 633.464844 892.640625 C 595.335938 906.464844 547.753906 915.011719 500 915.210938 C 452.25 915.011719 404.664062 906.464844 366.539062 892.640625 C 356.878906 889.546875 348.027344 885.5625 339.53125 882.242188 C 335.390625 880.328125 331.378906 878.472656 327.503906 876.683594 C 325.566406 875.785156 323.664062 874.902344 321.800781 874.039062 C 319.949219 873.152344 318.191406 872.160156 316.4375 871.257812 C 309.46875 867.554688 303.007812 864.324219 297.554688 860.898438 C 294.792969 859.246094 292.199219 857.695312 289.789062 856.253906 C 288.585938 855.53125 287.425781 854.835938 286.3125 854.164062 C 285.234375 853.441406 284.199219 852.746094 283.214844 852.085938 C 257.273438 835.085938 232.902344 815.773438 210.75 794.082031 C 187.382812 770.742188 166.957031 744.597656 148.945312 716.875 C 128.523438 684.816406 112.070312 650.007812 101.292969 613.320312 C 90.074219 576.753906 84.886719 538.378906 84.550781 500 C 84.886719 461.621094 90.074219 423.246094 101.292969 386.679688 C 112.070312 349.992188 128.523438 315.1875 148.941406 283.128906 C 165.796875 257.042969 184.964844 232.523438 206.503906 210.222656 C 209.289062 207.175781 212.398438 204.449219 215.355469 201.574219 C 218.363281 198.75 221.285156 195.832031 224.355469 193.078125 L 233.691406 184.957031 L 238.359375 180.890625 L 243.203125 177.046875 L 252.871094 169.320312 C 256.148438 166.816406 259.527344 164.449219 262.84375 161.996094 C 269.402344 156.976562 276.378906 152.5625 283.210938 147.917969 C 284.195312 147.253906 285.230469 146.5625 286.308594 145.835938 C 287.421875 145.167969 288.578125 144.472656 289.785156 143.746094 C 292.195312 142.304688 294.789062 140.753906 297.550781 139.105469 C 303.007812 135.675781 309.464844 132.449219 316.433594 128.742188 C 318.1875 127.839844 319.945312 126.851562 321.800781 125.964844 C 323.664062 125.097656 325.5625 124.214844 327.5 123.316406 C 331.375 121.527344 335.390625 119.671875 339.53125 117.757812 C 348.023438 114.4375 356.878906 110.453125 366.535156 107.359375 C 404.664062 93.535156 452.246094 84.988281 500 84.789062 C 547.75 84.988281 595.335938 93.535156 633.460938 107.359375 C 643.121094 110.453125 651.972656 114.4375 660.46875 117.757812 C 664.609375 119.671875 668.621094 121.527344 672.496094 123.316406 C 674.433594 124.214844 676.335938 125.097656 678.199219 125.960938 C 680.050781 126.847656 681.808594 127.839844 683.5625 128.742188 C 690.53125 132.445312 696.992188 135.675781 702.445312 139.101562 C 705.207031 140.753906 707.800781 142.304688 710.210938 143.746094 C 711.414062 144.46875 712.574219 145.164062 713.6875 145.835938 C 714.765625 146.558594 715.800781 147.253906 716.785156 147.914062 C 742.726562 164.914062 767.097656 184.226562 789.25 205.917969 C 812.617188 229.257812 833.042969 255.402344 851.054688 283.125 C 871.476562 315.183594 887.929688 349.992188 898.707031 386.679688 C 909.925781 423.246094 915.113281 461.621094 915.445312 500 C 915.113281 538.378906 909.925781 576.753906 898.707031 613.320312 Z M 924.996094 499.71875 L 924.988281 499.683594 C 924.640625 460.496094 919.371094 421.285156 907.953125 383.898438 C 896.972656 346.394531 880.15625 310.796875 859.191406 278.101562 L 849.113281 262.953125 C 849.113281 262.953125 846.199219 258.878906 841.832031 252.769531 C 837.625 246.53125 831.1875 238.847656 825.039062 230.945312 C 818.414062 223.441406 812.0625 215.695312 806.71875 210.414062 C 801.527344 204.992188 798.066406 201.382812 798.066406 201.382812 C 798.066406 201.382812 797.191406 200.488281 795.613281 198.972656 C 794.039062 197.453125 791.792969 195.277344 789.09375 192.671875 C 783.828125 187.308594 776.1875 180.847656 768.691406 174.21875 C 764.84375 171.023438 760.886719 167.960938 757.230469 165.019531 C 755.394531 163.558594 753.621094 162.148438 751.9375 160.808594 C 750.195312 159.550781 748.546875 158.363281 747.023438 157.265625 C 740.9375 152.871094 736.878906 149.945312 736.878906 149.945312 C 736.878906 149.945312 735.996094 149.226562 734.566406 148.300781 C 733.148438 147.355469 731.261719 146.09375 729.378906 144.828125 C 725.601562 142.300781 721.824219 139.773438 721.824219 139.773438 C 720.816406 139.09375 719.761719 138.378906 718.660156 137.636719 C 717.523438 136.945312 716.339844 136.230469 715.109375 135.488281 C 712.644531 134.003906 709.992188 132.414062 707.171875 130.71875 C 701.59375 127.203125 694.992188 123.882812 687.863281 120.085938 C 686.070312 119.15625 684.269531 118.144531 682.375 117.234375 C 680.46875 116.34375 678.523438 115.4375 676.546875 114.515625 C 672.582031 112.679688 668.472656 110.777344 664.234375 108.8125 C 655.546875 105.398438 646.484375 101.328125 636.601562 98.144531 C 597.582031 83.972656 548.859375 75.191406 500 75 C 451.140625 75.191406 402.417969 83.972656 363.394531 98.148438 C 353.515625 101.328125 344.449219 105.402344 335.761719 108.816406 C 331.523438 110.777344 327.417969 112.679688 323.453125 114.519531 C 321.472656 115.441406 319.527344 116.347656 317.621094 117.234375 C 315.726562 118.144531 313.925781 119.15625 312.132812 120.085938 C 305.003906 123.882812 298.402344 127.203125 292.824219 130.71875 C 290.003906 132.414062 287.355469 134.007812 284.886719 135.488281 C 283.660156 136.230469 282.472656 136.949219 281.339844 137.636719 C 280.234375 138.382812 279.179688 139.09375 278.171875 139.773438 C 278.171875 139.773438 274.398438 142.300781 270.621094 144.828125 C 268.734375 146.09375 266.847656 147.355469 265.433594 148.304688 C 264.003906 149.226562 263.121094 149.945312 263.121094 149.945312 C 263.121094 149.945312 259.0625 152.871094 252.976562 157.265625 C 251.453125 158.363281 249.804688 159.550781 248.0625 160.808594 C 246.378906 162.148438 244.605469 163.558594 242.769531 165.019531 C 239.113281 167.960938 235.15625 171.023438 231.308594 174.21875 C 223.8125 180.847656 216.171875 187.308594 210.90625 192.671875 C 208.207031 195.277344 205.960938 197.453125 204.386719 198.972656 C 202.808594 200.488281 201.933594 201.382812 201.933594 201.382812 C 201.933594 201.382812 198.472656 204.992188 193.28125 210.414062 C 187.9375 215.695312 181.585938 223.441406 174.960938 230.945312 C 168.8125 238.847656 162.371094 246.535156 158.167969 252.769531 C 153.796875 258.882812 150.882812 262.957031 150.882812 262.957031 L 140.808594 278.101562 C 119.84375 310.796875 103.027344 346.398438 92.046875 383.898438 C 80.628906 421.289062 75.359375 460.5 75.011719 499.6875 L 75.003906 499.71875 L 75 500 L 75.003906 500.28125 L 75.011719 500.316406 C 75.359375 539.503906 80.628906 578.714844 92.046875 616.101562 C 103.027344 653.605469 119.84375 689.203125 140.808594 721.898438 L 150.886719 737.042969 C 150.886719 737.042969 153.800781 741.121094 158.167969 747.230469 C 162.375 753.46875 168.8125 761.152344 174.960938 769.054688 C 181.585938 776.558594 187.9375 784.304688 193.28125 789.585938 C 198.472656 795.003906 201.933594 798.617188 201.933594 798.617188 C 201.933594 798.617188 202.808594 799.511719 204.386719 801.027344 C 205.960938 802.546875 208.207031 804.722656 210.90625 807.328125 C 216.171875 812.691406 223.8125 819.152344 231.308594 825.78125 C 235.15625 828.976562 239.113281 832.039062 242.769531 834.980469 C 244.605469 836.441406 246.378906 837.851562 248.0625 839.191406 C 249.804688 840.449219 251.453125 841.636719 252.976562 842.734375 C 259.0625 847.128906 263.121094 850.054688 263.121094 850.054688 C 263.121094 850.054688 264.003906 850.773438 265.433594 851.695312 C 266.851562 852.644531 268.738281 853.90625 270.621094 855.171875 C 274.398438 857.699219 278.175781 860.226562 278.175781 860.226562 C 279.183594 860.90625 280.238281 861.621094 281.339844 862.363281 C 282.476562 863.054688 283.660156 863.769531 284.890625 864.511719 C 287.355469 865.996094 290.007812 867.585938 292.828125 869.28125 C 298.40625 872.796875 305.007812 876.117188 312.136719 879.914062 C 313.929688 880.84375 315.730469 881.855469 317.625 882.765625 C 319.53125 883.65625 321.476562 884.5625 323.453125 885.484375 C 327.417969 887.320312 331.527344 889.222656 335.765625 891.1875 C 344.453125 894.601562 353.515625 898.671875 363.398438 901.855469 C 402.417969 916.027344 451.140625 924.804688 500 925 C 548.859375 924.804688 597.582031 916.027344 636.605469 901.851562 C 646.484375 898.671875 655.550781 894.597656 664.238281 891.183594 C 668.476562 889.222656 672.582031 887.320312 676.546875 885.480469 C 678.527344 884.558594 680.472656 883.652344 682.378906 882.765625 C 684.273438 881.855469 686.074219 880.84375 687.867188 879.914062 C 694.996094 876.117188 701.597656 872.796875 707.175781 869.28125 C 709.996094 867.585938 712.644531 865.992188 715.113281 864.511719 C 716.339844 863.769531 717.527344 863.050781 718.660156 862.363281 C 719.765625 861.617188 720.820312 860.90625 721.828125 860.226562 C 721.828125 860.226562 725.601562 857.699219 729.378906 855.171875 C 731.265625 853.90625 733.152344 852.644531 734.566406 851.695312 C 735.996094 850.773438 736.878906 850.054688 736.878906 850.054688 C 736.878906 850.054688 740.9375 847.128906 747.023438 842.734375 C 748.546875 841.636719 750.195312 840.449219 751.9375 839.191406 C 753.621094 837.851562 755.394531 836.441406 757.230469 834.980469 C 760.886719 832.039062 764.84375 828.976562 768.691406 825.78125 C 776.1875 819.152344 783.828125 812.691406 789.09375 807.328125 C 791.792969 804.722656 794.039062 802.546875 795.613281 801.027344 C 797.191406 799.511719 798.066406 798.617188 798.066406 798.617188 C 798.066406 798.617188 801.527344 795.003906 806.71875 789.585938 C 812.0625 784.304688 818.414062 776.558594 825.039062 769.054688 C 831.1875 761.152344 837.628906 753.464844 841.832031 747.230469 C 846.203125 741.117188 849.113281 737.042969 849.113281 737.042969 L 859.191406 721.898438 C 880.15625 689.203125 896.972656 653.601562 907.953125 616.101562 C 919.371094 578.710938 924.640625 539.5 924.988281 500.3125 L 924.996094 500.28125 L 925 500 L 924.996094 499.71875" fill="#112241"/></g></svg>